<svg width="83" height="78" viewBox="0 0 83 78" fill="none" xmlns="http://www.w3.org/2000/svg">
<path d="M41.5 12.5102V73.5705M24.2875 24.7223H15.175M27.325 36.9343H15.175M82 58.3054V9.17227C82 4.28745 78.031 0.66454 73.2115 1.07161H72.9685C64.4635 1.80433 51.544 6.15996 44.335 10.7191L43.6465 11.1669C42.472 11.8996 40.528 11.8996 39.3535 11.1669L38.341 10.5563C31.132 6.03784 18.253 1.72292 9.748 1.0309C4.9285 0.623833 1 4.28745 1 9.13156V58.3054C1 62.2133 4.159 65.8769 8.047 66.3653L9.2215 66.5282C18.01 67.7087 31.5775 72.1864 39.3535 76.4606L39.5155 76.5421C40.609 77.1527 42.3505 77.1527 43.4035 76.5421C51.1795 72.2271 64.7875 67.7087 73.6165 66.5282L74.953 66.3653C78.841 65.8769 82 62.2133 82 58.3054Z" stroke="black" stroke-width="1.5" stroke-linecap="round" stroke-linejoin="round"/>
</svg>
